<svg width="83" height="24" viewBox="0 0 83 24" fill="none" xmlns="http://www.w3.org/2000/svg">
<path d="M10.8359 23.6006C7.75 23.6006 5.3916 22.7607 3.76074 21.0811C1.57324 19.0205 0.479492 16.0518 0.479492 12.1748C0.479492 8.21973 1.57324 5.25098 3.76074 3.26855C5.3916 1.58887 7.75 0.749023 10.8359 0.749023C13.9219 0.749023 16.2803 1.58887 17.9111 3.26855C20.0889 5.25098 21.1777 8.21973 21.1777 12.1748C21.1777 16.0518 20.0889 19.0205 17.9111 21.0811C16.2803 22.7607 13.9219 23.6006 10.8359 23.6006ZM15.0986 17.7998C16.1436 16.4814 16.666 14.6064 16.666 12.1748C16.666 9.75293 16.1387 7.88281 15.084 6.56445C14.0391 5.23633 12.623 4.57227 10.8359 4.57227C9.04883 4.57227 7.62305 5.23145 6.55859 6.5498C5.49414 7.86816 4.96191 9.74316 4.96191 12.1748C4.96191 14.6064 5.49414 16.4814 6.55859 17.7998C7.62305 19.1182 9.04883 19.7773 10.8359 19.7773C12.623 19.7773 14.0439 19.1182 15.0986 17.7998ZM24.3857 1.4082H28.5605V23H24.3857V1.4082ZM47.0762 13.625V23H42.8135V13.2881C42.8135 12.4287 42.667 11.7354 42.374 11.208C41.9932 10.4658 41.2705 10.0947 40.2061 10.0947C39.1025 10.0947 38.2627 10.4658 37.6865 11.208C37.1201 11.9404 36.8369 12.9902 36.8369 14.3574V23H32.6768V1.48145H36.8369V9.11328C37.4424 8.18555 38.1406 7.54102 38.9316 7.17969C39.7324 6.80859 40.5723 6.62305 41.4512 6.62305C42.4375 6.62305 43.3311 6.79395 44.1318 7.13574C44.9424 7.47754 45.6064 8 46.124 8.70312C46.5635 9.29883 46.832 9.91406 46.9297 10.5488C47.0273 11.1738 47.0762 12.1992 47.0762 13.625ZM51.5879 8.76172C52.6914 7.35547 54.5859 6.65234 57.2715 6.65234C59.0195 6.65234 60.5723 6.99902 61.9297 7.69238C63.2871 8.38574 63.9658 9.69434 63.9658 11.6182V18.9424C63.9658 19.4502 63.9756 20.0654 63.9951 20.7881C64.0244 21.335 64.1074 21.7061 64.2441 21.9014C64.3809 22.0967 64.5859 22.2578 64.8594 22.3848V23H60.3184C60.1914 22.6777 60.1035 22.375 60.0547 22.0918C60.0059 21.8086 59.9668 21.4863 59.9375 21.125C59.3613 21.75 58.6973 22.2822 57.9453 22.7217C57.0469 23.2393 56.0312 23.498 54.8984 23.498C53.4531 23.498 52.2568 23.0879 51.3096 22.2676C50.3721 21.4375 49.9033 20.2656 49.9033 18.752C49.9033 16.7891 50.6602 15.3682 52.1738 14.4893C53.0039 14.0107 54.2246 13.6689 55.8359 13.4639L57.2568 13.2881C58.0283 13.1904 58.5801 13.0684 58.9121 12.9219C59.5078 12.668 59.8057 12.2725 59.8057 11.7354C59.8057 11.0811 59.5762 10.6318 59.1172 10.3877C58.668 10.1338 58.0039 10.0068 57.125 10.0068C56.1387 10.0068 55.4404 10.251 55.0303 10.7393C54.7373 11.1006 54.542 11.5889 54.4443 12.2041H50.416C50.5039 10.8076 50.8945 9.66016 51.5879 8.76172ZM54.6934 19.9824C55.084 20.3047 55.5625 20.4658 56.1289 20.4658C57.0273 20.4658 57.8525 20.2021 58.6045 19.6748C59.3662 19.1475 59.7617 18.1855 59.791 16.7891V15.2363C59.5273 15.4023 59.2588 15.5391 58.9854 15.6465C58.7217 15.7441 58.3555 15.8369 57.8867 15.9248L56.9492 16.1006C56.0703 16.2568 55.4404 16.4473 55.0596 16.6719C54.415 17.0527 54.0928 17.6436 54.0928 18.4443C54.0928 19.1572 54.293 19.6699 54.6934 19.9824ZM75.7139 10.8857C74.0342 10.8857 72.9062 11.4326 72.3301 12.5264C72.0078 13.1416 71.8467 14.0889 71.8467 15.3682V23H67.6426V7.0332H71.627V9.81641C72.2715 8.75195 72.833 8.02441 73.3115 7.63379C74.0928 6.97949 75.1084 6.65234 76.3584 6.65234C76.4365 6.65234 76.5 6.65723 76.5488 6.66699C76.6074 6.66699 76.7295 6.67187 76.915 6.68164V10.959C76.6514 10.9297 76.417 10.9102 76.2119 10.9004C76.0068 10.8906 75.8408 10.8857 75.7139 10.8857ZM77.6621 18.6348H82.1006V23H77.6621V18.6348Z" fill="url(#paint0_linear_83_9)"/>
<defs>
<linearGradient id="paint0_linear_83_9" x1="-1" y1="28" x2="104.5" y2="28" gradientUnits="userSpaceOnUse">
<stop stop-color="#D3FFE7"/>
<stop offset="1" stop-color="#CCE7FF"/>
</linearGradient>
</defs>
</svg>
